<svg xmlns="http://www.w3.org/2000/svg" viewBox="300 120 362 255">
  <defs>
    <linearGradient id="kbm" x1="307.14" y1="247.47" x2="654.7" y2="247.47" gradientUnits="userSpaceOnUse">
      <stop offset="0" stop-color="#14c8c8"/>
      <stop offset="1" stop-color="#5348ce"/>
    </linearGradient>
  </defs>
  <path fill="url(#kbm)" d="M539.33,132.13c-20.64,0-40.93,5.46-58.61,16.02-17.32-10.24-37.61-16.02-58.22-16.02-63.64,0-115.37,51.69-115.37,115.33s51.73,115.37,115.37,115.37c20.57,0,40.78-5.42,58.41-15.9,17.64,10.48,37.85,15.9,58.41,15.9,63.64,0,115.37-51.73,115.37-115.37,0-63.64-51.73-115.33-115.37-115.33ZM480.92,335.45c-18.23-12.22-31.88-29.27-39.71-48.76l44.97,44.97c-1.7,1.31-3.48,2.57-5.26,3.8ZM494.36,324.69l-59.17-59.13c-1.03-5.93-1.54-11.98-1.54-18.11,0-1.42.04-2.85.08-4.27l70.56,70.83c-3.05,3.8-6.37,7.36-9.93,10.68ZM510.7,305.31l-75.5-75.78c.99-5.73,2.41-11.31,4.31-16.73l78.78,78.78c-2.21,4.75-4.75,9.33-7.59,13.72ZM522.52,280.71l-78.62-78.66c2.18-4.55,4.67-8.94,7.47-13.17l75.18,75.18c-.91,5.7-2.25,11.27-4.03,16.65ZM457.78,180.22c3.12-3.8,6.53-7.4,10.2-10.8l57.98,57.98c1.23,6.53,1.86,13.21,1.86,20.05,0,.91,0,1.82-.04,2.77l-70-70ZM476.25,162.58c1.46-1.11,3.01-2.18,4.55-3.24,17.64,11.59,30.89,27.8,38.76,46.51l-43.31-43.27ZM316.83,247.45c0-58.41,47.26-105.68,105.68-105.68,17.48,0,34.25,4.07,49.48,12.26-30.14,21.59-47.62,56.2-47.62,93.42s17.88,71.82,47.62,93.42c-15.27,8.19-32.39,12.26-49.48,12.26-58.41.04-105.68-47.22-105.68-105.68ZM539.33,353.17c-17.48,0-34.25-4.07-49.48-12.26,30.14-21.59,47.62-56.2,47.62-93.42s-17.48-71.86-47.62-93.42c15.27-8.19,32-12.26,49.48-12.26,58.41,0,105.68,47.26,105.68,105.68.04,58.41-47.22,105.68-105.68,105.68Z"/>
</svg>
