<svg xmlns="http://www.w3.org/2000/svg" viewBox="0 0 72 44">
  <defs>
    <clipPath id="tA"><circle cx="24" cy="22" r="17"/></clipPath>
    <clipPath id="tB"><circle cx="48" cy="22" r="17"/></clipPath>
  </defs>
  <g clip-path="url(#tA)">
    <g clip-path="url(#tB)">
      <g stroke="#13A6A6" stroke-width="1.4">
        <line x1="-12" y1="44" x2="32" y2="0"/>
        <line x1="-8" y1="44" x2="36" y2="0"/>
        <line x1="-4" y1="44" x2="40" y2="0"/>
        <line x1="0" y1="44" x2="44" y2="0"/>
        <line x1="4" y1="44" x2="48" y2="0"/>
        <line x1="8" y1="44" x2="52" y2="0"/>
        <line x1="12" y1="44" x2="56" y2="0"/>
        <line x1="16" y1="44" x2="60" y2="0"/>
        <line x1="20" y1="44" x2="64" y2="0"/>
        <line x1="24" y1="44" x2="68" y2="0"/>
        <line x1="28" y1="44" x2="72" y2="0"/>
        <line x1="32" y1="44" x2="76" y2="0"/>
      </g>
    </g>
  </g>
  <circle cx="24" cy="22" r="17" fill="none" stroke="#13A6A6" stroke-width="2.6"/>
  <circle cx="48" cy="22" r="17" fill="none" stroke="#13A6A6" stroke-width="2.6"/>
</svg>
