<svg xmlns="http://www.w3.org/2000/svg" viewBox="130 130 700 458">
  <defs>
    <linearGradient id="kbm" x1="307.14" y1="247.47" x2="654.7" y2="247.47" gradientUnits="userSpaceOnUse">
      <stop offset="0" stop-color="#14c8c8"/>
      <stop offset="1" stop-color="#5348ce"/>
    </linearGradient>
  </defs>
  <path fill="url(#kbm)" d="M539.33,132.13c-20.64,0-40.93,5.46-58.61,16.02-17.32-10.24-37.61-16.02-58.22-16.02-63.64,0-115.37,51.69-115.37,115.33s51.73,115.37,115.37,115.37c20.57,0,40.78-5.42,58.41-15.9,17.64,10.48,37.85,15.9,58.41,15.9,63.64,0,115.37-51.73,115.37-115.37,0-63.64-51.73-115.33-115.37-115.33ZM480.92,335.45c-18.23-12.22-31.88-29.27-39.71-48.76l44.97,44.97c-1.7,1.31-3.48,2.57-5.26,3.8ZM494.36,324.69l-59.17-59.13c-1.03-5.93-1.54-11.98-1.54-18.11,0-1.42.04-2.85.08-4.27l70.56,70.83c-3.05,3.8-6.37,7.36-9.93,10.68ZM510.7,305.31l-75.5-75.78c.99-5.73,2.41-11.31,4.31-16.73l78.78,78.78c-2.21,4.75-4.75,9.33-7.59,13.72ZM522.52,280.71l-78.62-78.66c2.18-4.55,4.67-8.94,7.47-13.17l75.18,75.18c-.91,5.7-2.25,11.27-4.03,16.65ZM457.78,180.22c3.12-3.8,6.53-7.4,10.2-10.8l57.98,57.98c1.23,6.53,1.86,13.21,1.86,20.05,0,.91,0,1.82-.04,2.77l-70-70ZM476.25,162.58c1.46-1.11,3.01-2.18,4.55-3.24,17.64,11.59,30.89,27.8,38.76,46.51l-43.31-43.27ZM316.83,247.45c0-58.41,47.26-105.68,105.68-105.68,17.48,0,34.25,4.07,49.48,12.26-30.14,21.59-47.62,56.2-47.62,93.42s17.88,71.82,47.62,93.42c-15.27,8.19-32.39,12.26-49.48,12.26-58.41.04-105.68-47.22-105.68-105.68ZM539.33,353.17c-17.48,0-34.25-4.07-49.48-12.26,30.14-21.59,47.62-56.2,47.62-93.42s-17.48-71.86-47.62-93.42c15.27-8.19,32-12.26,49.48-12.26,58.41,0,105.68,47.26,105.68,105.68.04,58.41-47.22,105.68-105.68,105.68Z"/>
  <g fill="#534acf">
    <path d="M218.82,584.12h-12.99l-64.23-63.01v63.01h-9.7v-128.1h9.7v59.68l62.4-59.68h12.99l-64.78,62.22,66.61,65.88Z"/>
    <path d="M331.18,566.83c-12.81,12.87-28.43,19.31-46.85,19.31s-34.04-6.43-46.85-19.31c-12.81-12.87-19.21-28.46-19.21-46.76s6.4-33.88,19.21-46.76c12.81-12.87,28.43-19.31,46.85-19.31s34.04,6.44,46.85,19.31c12.81,12.87,19.21,28.46,19.21,46.76s-6.4,33.89-19.21,46.76ZM244.34,560.24c10.92,11.04,24.25,16.56,39.99,16.56s29.07-5.52,39.99-16.56c10.92-11.04,16.38-24.43,16.38-40.17s-5.46-29.13-16.38-40.17c-10.92-11.04-24.25-16.56-39.99-16.56s-29.07,5.52-39.99,16.56c-10.92,11.04-16.38,24.43-16.38,40.17s5.46,29.13,16.38,40.17Z"/>
    <path d="M443.17,517.69c6.59,2.56,11.9,6.65,15.92,12.26,4.03,5.61,6.04,12.02,6.04,19.21,0,9.64-3.42,17.87-10.25,24.71s-15.07,10.25-24.71,10.25h-55.27v-128.1h51.06c9.27,0,17.2,3.29,23.79,9.88,6.59,6.59,9.88,14.52,9.88,23.79,0,6.1-1.5,11.62-4.48,16.56-2.99,4.94-6.99,8.76-11.99,11.44ZM425.97,465.17h-41.36v49.04h41.36c6.59,0,12.23-2.41,16.93-7.23,4.7-4.82,7.05-10.58,7.05-17.29s-2.35-12.47-7.05-17.29c-4.7-4.82-10.34-7.23-16.93-7.23ZM430.18,574.97c6.95,0,12.9-2.53,17.84-7.59,4.94-5.06,7.41-11.13,7.41-18.21s-2.47-13.14-7.41-18.21c-4.94-5.06-10.89-7.59-17.84-7.59h-45.57v51.61h45.57Z"/>
    <path d="M498.62,574.97h64.05v9.15h-73.75v-128.1h72.83v9.15h-63.13v49.78h58.56v9.15h-58.56v50.87Z"/>
    <path d="M691.13,566.83c-12.81,12.87-28.43,19.31-46.85,19.31s-34.04-6.43-46.85-19.31c-12.81-12.87-19.22-28.46-19.22-46.76s6.41-33.88,19.22-46.76c12.81-12.87,28.42-19.31,46.85-19.31s34.04,6.44,46.85,19.31c12.81,12.87,19.21,28.46,19.21,46.76s-6.4,33.89-19.21,46.76ZM604.3,560.24c10.92,11.04,24.25,16.56,39.99,16.56s29.07-5.52,39.99-16.56c10.92-11.04,16.38-24.43,16.38-40.17s-5.46-29.13-16.38-40.17c-10.92-11.04-24.25-16.56-39.99-16.56s-29.07,5.52-39.99,16.56c-10.92,11.04-16.38,24.43-16.38,40.17s5.46,29.13,16.38,40.17Z"/>
    <path d="M819.05,456.02h9.7v128.1h-8.6l-75.58-110.22v110.22h-9.7v-128.1h8.06l76.12,110.68v-110.68Z"/>
  </g>
</svg>
